<?xml version="1.0" standalone="no"?>
<!DOCTYPE svg PUBLIC "-//W3C//DTD SVG 20010904//EN"
 "http://www.w3.org/TR/2001/REC-SVG-20010904/DTD/svg10.dtd">
<svg version="1.0" xmlns="http://www.w3.org/2000/svg"
 width="219.000000pt" height="219.000000pt" viewBox="0 0 219.000000 219.000000"
 preserveAspectRatio="xMidYMid meet">
<metadata>
Created by potrace 1.14, written by Peter Selinger 2001-2017
</metadata>
<g transform="translate(0.000000,219.000000) scale(0.100000,-0.100000)"
fill="#000000" stroke="none">
<path d="M728 2158 c-9 -16 -14 -73 -15 -178 -1 -92 -7 -182 -16 -220 -13 -59
-16 -65 -40 -65 -14 0 -29 -3 -33 -7 -4 -5 5 -8 19 -8 30 0 36 -20 12 -40 -9
-7 -14 -19 -11 -27 4 -9 -3 -13 -19 -13 -14 0 -25 -4 -25 -10 0 -5 7 -10 15
-10 14 0 64 -47 65 -61 0 -3 -24 -11 -52 -18 -71 -18 -114 -48 -138 -97 -22
-45 -25 -85 -9 -116 10 -18 8 -24 -7 -35 -11 -7 -58 -44 -106 -81 -69 -53 -88
-72 -88 -92 0 -14 9 -95 20 -180 10 -85 31 -247 45 -360 14 -113 27 -214 30
-225 3 -14 28 -30 82 -52 43 -18 202 -84 353 -147 151 -64 286 -116 300 -116
17 0 81 43 195 130 94 72 176 133 182 136 7 3 33 -12 58 -34 121 -106 298 -91
361 30 19 37 18 65 -5 78 -28 14 -48 3 -82 -46 -33 -49 -58 -59 -126 -51 -47
5 -86 28 -110 64 -13 20 -10 24 76 89 86 63 91 69 91 104 0 27 7 43 26 61 53
48 75 131 58 218 -7 33 -77 121 -97 121 -7 0 -18 4 -24 8 -15 10 -45 209 -44
297 0 36 -7 76 -18 100 -10 22 -16 45 -14 51 2 6 -8 16 -22 22 -29 13 -32 27
-9 36 9 4 14 13 10 21 -3 9 0 15 10 15 21 0 63 51 60 75 -1 11 -10 31 -19 45
-25 38 -25 163 0 220 22 50 39 118 48 196 9 74 -8 88 -95 81 -36 -3 -89 -14
-118 -25 l-53 -20 -72 33 c-102 47 -200 59 -311 39 l-85 -16 -33 26 c-46 35
-142 76 -178 76 -20 0 -33 -7 -42 -22z m72 -187 c0 -10 -10 -26 -22 -37 -20
-18 -21 -18 -15 -1 4 11 10 30 13 43 7 26 24 23 24 -5z m821 -93 c1 -7 3 -26
5 -43 l3 -30 -14 25 c-8 14 -14 33 -15 43 0 19 19 24 21 5z m-513 -307 c15
-34 9 -54 -23 -75 -38 -25 -91 -21 -111 9 -9 14 -14 34 -11 45 3 11 1 22 -4
25 -4 3 -11 -5 -15 -19 -11 -47 39 -106 84 -97 7 1 26 -12 41 -28 33 -36 58
-39 93 -12 18 15 34 18 64 14 36 -5 43 -2 67 27 16 19 27 44 27 62 0 36 -25
34 -26 -3 -1 -42 -3 -46 -34 -59 -25 -10 -35 -9 -67 6 -52 26 -65 65 -34 98
19 20 30 24 55 19 52 -10 179 -51 221 -72 35 -18 37 -20 15 -21 -39 -1 -3 -20
38 -20 39 0 101 -38 82 -50 -7 -4 -33 0 -58 10 -99 36 -142 35 -49 -1 l42 -17
-40 -7 c-63 -12 -95 -32 -102 -65 -5 -26 -13 -32 -56 -45 -28 -8 -59 -15 -68
-15 -10 0 -21 -5 -25 -11 -8 -13 -106 -5 -182 16 -84 22 -140 56 -207 127 -36
37 -70 68 -75 68 -6 0 -10 6 -10 14 0 10 17 17 55 21 85 11 68 28 -20 20 -41
-4 -75 -5 -75 -1 0 3 14 13 31 22 23 11 45 14 83 9 43 -5 48 -4 31 7 -19 12
-19 13 10 19 17 4 77 7 135 8 l105 1 13 -29z m-347 -175 c-7 -8 -12 -23 -11
-33 4 -35 0 -41 -42 -66 -59 -33 -162 -45 -189 -21 -27 25 -24 31 15 26 65 -8
151 34 196 94 15 19 29 29 34 24 5 -6 4 -15 -3 -24z m763 -186 c30 -6 69 -9
86 -7 37 6 38 -5 4 -32 -29 -22 -59 -27 -69 -11 -3 6 -21 10 -40 10 -22 0 -43
9 -61 25 -15 14 -31 25 -35 25 -14 0 -28 36 -23 57 5 20 9 18 44 -17 29 -29
51 -41 94 -50z m-443 -246 c17 -21 0 -49 -32 -49 -24 0 -36 23 -25 51 7 19 40
18 57 -2z m-130 -20 c17 -21 0 -49 -32 -49 -24 0 -36 23 -25 51 7 19 40 18 57
-2z m239 -59 c20 -25 8 -50 -25 -50 -21 0 -31 5 -33 18 -4 21 14 47 33 47 7 0
18 -7 25 -15z m-325 -51 c9 -9 14 -21 12 -27 -6 -18 -33 -31 -51 -24 -19 7
-22 53 -3 60 20 9 25 8 42 -9z m205 -9 c40 -20 60 -53 60 -95 0 -122 -176
-148 -211 -31 -15 49 8 102 54 125 40 20 61 20 97 1z m671 -144 c-9 -26 -9
-26 -10 5 -1 17 -3 47 -6 65 -5 34 -5 34 10 -5 11 -29 13 -47 6 -65z m157
-379 c5 -32 -60 -97 -111 -112 -57 -15 -101 -10 -105 13 -3 14 4 17 38 17 55
0 91 20 124 70 28 43 49 48 54 12z"/>
<path d="M1016 795 c-5 -13 -9 -13 -26 -3 -25 16 -54 1 -58 -32 -3 -17 0 -21
12 -17 19 7 21 -4 5 -20 -7 -7 -9 -19 -6 -27 8 -21 60 -21 77 -1 10 12 16 13
27 3 13 -10 19 -8 35 12 20 24 18 61 -4 87 -15 18 -55 16 -62 -2z m4 -61 c0
-8 -5 -12 -10 -9 -6 4 -8 11 -5 16 9 14 15 11 15 -7z"/>
</g>
</svg>
